<svg id="Layer_1" xmlns="http://www.w3.org/2000/svg" viewBox="0 0 1000 869.2">
  <style>
    .st0{fill:#fff}
  </style>
  <path class="st0" d="M896.5 2.2C797 70.1 692.8 130 584.1 181.9c-15.5 7.4-34.7 21.5-47.1 17.3-12.6-4.3-19.8-26.8-27.8-42.2-26.8-51.5-52.7-103.4-79.5-154.8h-54.5c2.2 1.4 4.4 3.1 6.1 4.7 4 3.6 7 8.3 9.7 13 37.3 65.7 74.5 131.5 112.8 199.2-42.8 17.2-86.5 34.7-132.9 53.3-2.8-27.6-6.1-52.3-7.5-77-2.9-49.5-5-99-6.8-148.6-.4-11.3 1.3-22.9 3.4-34 .6-3.5 2.7-7.9 5.2-10.6h-50.5c-1.5 11.5-2.5 23-2.3 34.5 1.4 76.3 5.1 152.5 8.7 228.7 1.1 23.5 2.2 23.7-20.8 30-73 20-146.2 39.5-219.1 59.8-21.4 6-43 12.3-63.2 21.4-20.4 9.2-23.2 26.9-9 44.3 7.2 8.8 15.7 16.8 24.8 23.6 95.8 71.1 199.1 127.1 315.4 157.5 5.6 1.5 12.4 8.7 13.8 14.4 4.9 20.6 6.6 42 11.4 62.7 14.6 63.5 29.1 127 45.1 190.1h121.1c28.9-71.3 57.7-142.6 86.3-214 4-10.1 10-13.5 21-13.6 49-.7 98.1-2.2 147.1-4.1 17.2-.7 34.3-3.6 51.5-5.5-.2-1.3-.3-2.5-.5-3.8H638.6c30-57.6 58.1-111.5 86.9-166.7 71.4 55.1 145.7 100.8 223.3 141.4-72.2-50.8-145.8-99.4-212.7-157.8 8.3-14.9 15.2-28.6 23.2-41.5C824.4 299.7 890 196 955 92c14.4-23 27.8-46.8 40.1-71 3.1-6.1 4.9-12.5 4.9-18.7H896.5zm-802.6 437c-7.7-5.9-12.5-15.6-18.6-23.6 8.3-5.5 16-13.4 25.1-16.1 74.1-21.6 148.5-42.3 224.8-63.8 10.4 81.1 20.5 160 31 241.9-94.2-36.5-183.3-77.8-262.3-138.4zm382.4 426.7c-27.1-80.3-42.3-162.5-57.6-246.7 51.1 7.1 99.8 13.8 148.6 20.6-30.2 74.9-60.2 149.5-91 226.1zm198-434.1c-30.7 60.8-61.8 121.4-93.3 181.8-2.2 4.3-7.5 6.9-11.5 10.4-50.2-9.5-97.8-18.2-145.2-28.1-4.9-1-11.2-9-12-14.5-12.4-83.5-24.2-167.1-35.4-250.8-.6-4.2 4.7-11.9 9-13.5 46.1-18.1 92.5-35.5 139.2-52.2 4.2-1.5 12.9 1.1 15.5 4.7 39.1 53.4 82.1 103.3 131.5 147.5 2.9 2.6 4.1 10.9 2.2 14.7zm186.2-311.3c-3.2 9.2-7.6 18.2-12.7 26.5-51.2 83.7-102.7 167.2-154.1 250.8-.9 1.4-1.9 2.7-3.6 5.1-48.5-46.2-88.4-97.6-124.9-153.3 3.4-2.3 6.1-4.7 9.3-6.3 80.1-40.8 160.1-81.6 240.3-122.2 10.6-5.4 21.6-10.5 32.9-14.1 12.1-3.7 16.9 1.5 12.8 13.5z"/>
  <path class="st0" d="M375.2 2.2h-10.1c.9-1 2-1.8 3-2.1 1.9-.5 4.5.5 7.1 2.1z"/>
</svg>
